<svg width="88" height="53" viewBox="0 0 88 53" fill="none" xmlns="http://www.w3.org/2000/svg">
<path fill-rule="evenodd" clip-rule="evenodd" d="M61.791 6.36462C63.7623 6.15422 65.1898 4.38561 64.9794 2.41432L64.979 2.41015L82.8846 0.499023C80.9134 0.709507 79.4861 2.4781 79.6964 4.44933C79.9064 6.41677 81.6685 7.84252 83.6352 7.63892C81.6698 7.85494 80.2483 9.62051 80.4583 11.588C80.6687 13.5592 82.4373 14.9867 84.4085 14.7764C82.4373 14.9868 81.0098 16.7554 81.2202 18.7267C81.4306 20.6979 83.1992 22.1254 85.1704 21.9151C83.1992 22.1256 81.7719 23.8941 81.9823 25.8654C82.1924 27.8346 83.9575 29.2611 85.9263 29.0544C83.9582 29.2678 82.534 31.0348 82.7441 33.004C82.9541 34.9714 84.7161 36.3971 86.6827 36.1936C84.7175 36.4098 83.296 38.1753 83.506 40.1427C83.7164 42.1139 85.485 43.5414 87.4562 43.3311L69.5505 45.2422C69.3401 43.2709 67.5715 41.8434 65.6002 42.0538C63.6289 42.2642 62.2015 44.0328 62.4118 46.0041L4.68682 52.1653C6.65807 51.9548 8.08551 50.1862 7.87511 48.215C7.66522 46.2485 5.90472 44.8232 3.93924 45.0251C5.90309 44.8077 7.32312 43.0429 7.11323 41.0764C6.90283 39.1051 5.13424 37.6776 3.16297 37.888C5.13427 37.6776 6.56175 35.909 6.35135 33.9377C6.14095 31.9664 4.37234 30.5389 2.40105 30.7493L2.40104 30.7493C4.37227 30.5388 5.79969 28.7702 5.58929 26.799C5.3789 24.8277 3.61035 23.4003 1.6391 23.6106C3.61036 23.4002 5.03781 21.6316 4.82741 19.6603C4.61753 17.6939 2.85709 16.2686 0.891659 16.4704C2.85544 16.2529 4.27541 14.4881 4.06553 12.5217C3.85513 10.5504 2.08653 9.12291 0.115241 9.33331L0.115234 9.33325L57.8403 3.17208L57.8407 3.17625C58.0511 5.14754 59.8197 6.57502 61.791 6.36462ZM61.8566 7.21997C62.4058 7.16136 62.8985 7.55903 62.9571 8.10819L63.1711 10.1125C63.2297 10.6616 62.832 11.1543 62.2828 11.2129C61.7337 11.2716 61.241 10.8739 61.1823 10.3247L60.9684 8.32045C60.9098 7.77129 61.3075 7.27859 61.8566 7.21997ZM64.3288 20.9598C64.2702 20.4106 63.7775 20.0129 63.2283 20.0715C62.6792 20.1302 62.2815 20.6229 62.3401 21.172L62.554 23.1763C62.6127 23.7255 63.1054 24.1231 63.6545 24.0645C64.2037 24.0059 64.6014 23.5132 64.5427 22.964L64.3288 20.9598ZM62.3139 11.5038C62.863 11.4452 63.3557 11.8429 63.4144 12.3921L63.6283 14.3963C63.6869 14.9455 63.2892 15.4382 62.7401 15.4968C62.1909 15.5554 61.6982 15.1578 61.6396 14.6086L61.4257 12.6043C61.367 12.0552 61.7647 11.5624 62.3139 11.5038ZM64.7861 25.2436C64.7274 24.6945 64.2347 24.2968 63.6856 24.3554C63.1364 24.414 62.7387 24.9067 62.7974 25.4559L63.0113 27.4602C63.0699 28.0093 63.5626 28.407 64.1118 28.3484C64.6609 28.2898 65.0586 27.7971 65 27.2479L64.7861 25.2436ZM62.7711 15.7877C63.3203 15.7291 63.813 16.1267 63.8716 16.6759L64.0855 18.6802C64.1441 19.2293 63.7465 19.722 63.1973 19.7806C62.6481 19.8393 62.1554 19.4416 62.0968 18.8924L61.8829 16.8882C61.8243 16.339 62.2219 15.8463 62.7711 15.7877ZM65.2433 29.5275C65.1847 28.9783 64.692 28.5807 64.1428 28.6393C63.5936 28.6979 63.196 29.1906 63.2546 29.7398L63.4685 31.744C63.5271 32.2932 64.0198 32.6909 64.569 32.6322C65.1182 32.5736 65.5158 32.0809 65.4572 31.5318L65.2433 29.5275ZM64.6 32.9231C65.1492 32.8645 65.6419 33.2622 65.7005 33.8113L65.9144 35.8156C65.9731 36.3648 65.5754 36.8575 65.0262 36.9161C64.4771 36.9747 63.9844 36.577 63.9257 36.0279L63.7118 34.0236C63.6532 33.4744 64.0509 32.9817 64.6 32.9231ZM66.1578 38.0952C66.0991 37.546 65.6064 37.1484 65.0573 37.207C64.5081 37.2656 64.1104 37.7583 64.1691 38.3075L64.383 40.3117C64.4416 40.8609 64.9343 41.2586 65.4835 41.1999C66.0326 41.1413 66.4303 40.6486 66.3717 40.0995L66.1578 38.0952Z" fill="#FFE32C"/>
</svg>
